<svg xmlns="http://www.w3.org/2000/svg" width="14.593" height="14.593" viewBox="0 0 14.593 14.593"><defs><style>.a{fill:#727272;}</style></defs><path class="a" d="M306.285,260a.285.285,0,1,0,.285.285A.285.285,0,0,0,306.285,260Zm0,0" transform="translate(-297.278 -252.59)"/><path class="a" d="M2.913,10.54.062,14.131a.285.285,0,0,0,.223.462H14.309a.285.285,0,0,0,.223-.462l-2.85-3.591a.285.285,0,0,0-.223-.108h-2.5l2.132-3.343a4.56,4.56,0,1,0-7.592,0l2.132,3.343h-2.5A.285.285,0,0,0,2.913,10.54ZM1.848,12.8H3.572L2.6,14.023H.876ZM6,11l.781,1.226H4.752L5.725,11Zm2.6,0H8.87l.973,1.226H7.817Zm1.7,1.8.973,1.226H3.327L4.3,12.8ZM12,14.023,11.022,12.8h1.723l.973,1.226Zm.3-1.8H10.57L9.6,11h1.723ZM3.977,6.775a3.99,3.99,0,1,1,6.641,0l0,.005L7.3,11.982,3.98,6.78ZM5,11l-.973,1.226H2.3L3.274,11Zm0,0" transform="translate(-0.001)"/><path class="a" d="M158.85,65.7A2.85,2.85,0,1,0,156,62.85,2.85,2.85,0,0,0,158.85,65.7Zm0-5.13a2.28,2.28,0,1,1-2.28,2.28A2.283,2.283,0,0,1,158.85,60.57Zm0,0" transform="translate(-151.554 -58.29)"/><path class="a" d="M247.482,292.729a.285.285,0,0,0-.391.1l-1.053,1.748a.285.285,0,1,0,.488.294l1.053-1.748A.285.285,0,0,0,247.482,292.729Zm0,0" transform="translate(-238.985 -284.346)"/></svg>