<svg xmlns="http://www.w3.org/2000/svg" width="12.96" height="12.96" viewBox="0 0 12.96 12.96"><defs><style>.a{fill:#727272;}</style></defs><path class="a" d="M11.695,1.114H10.488V.759a.759.759,0,0,0-1.519,0v.354H4.717V.759A.759.759,0,0,0,3.2.759v.364a.253.253,0,0,0-.067-.009H2.122A1.267,1.267,0,0,0,.856,2.379V6.691a.253.253,0,0,0,.506,0V3.721h9.126a.253.253,0,1,0,0-.506H1.362V2.379a.76.76,0,0,1,.759-.759H3.13A.254.254,0,0,0,3.2,1.611v.326a.759.759,0,0,0,1.519,0V1.62H8.969v.316a.759.759,0,0,0,1.519,0V1.62h1.207a.76.76,0,0,1,.759.759V12a.456.456,0,1,1-.912,0v-.655a.253.253,0,0,0-.253-.253H8.345a.253.253,0,1,0,0,.506h2.691V12a.956.956,0,0,0,.115.456H.962A.456.456,0,0,1,.506,12v-.4H6.172a.253.253,0,1,0,0-.506H3.643a2.076,2.076,0,1,0-2.7,0H.253A.253.253,0,0,0,0,11.344V12a.963.963,0,0,0,.962.962H12A.963.963,0,0,0,12.96,12V2.379A1.267,1.267,0,0,0,11.695,1.114ZM4.21,1.936a.253.253,0,0,1-.506,0V.759a.253.253,0,0,1,.506,0Zm5.771,0a.253.253,0,1,1-.506,0V.759a.253.253,0,1,1,.506,0ZM.721,9.518A1.569,1.569,0,1,1,2.29,11.087,1.571,1.571,0,0,1,.721,9.518Z"/><g transform="translate(11.422 3.215)"><path class="a" d="M451.672,127.074a.253.253,0,1,0,.074.179A.255.255,0,0,0,451.672,127.074Z" transform="translate(-451.24 -127)"/></g><g transform="translate(7.128 11.09)"><path class="a" d="M282.012,438.2a.253.253,0,1,0,.074.179A.255.255,0,0,0,282.012,438.2Z" transform="translate(-281.58 -438.13)"/></g><g transform="translate(4.765 7.695)"><path class="a" d="M189.207,304a.962.962,0,1,0,.962.962A.963.963,0,0,0,189.207,304Zm0,1.418a.456.456,0,1,1,.456-.456A.456.456,0,0,1,189.207,305.418Z" transform="translate(-188.245 -304)"/></g><g transform="translate(7.128 7.695)"><path class="a" d="M282.54,304a.962.962,0,1,0,.962.962A.963.963,0,0,0,282.54,304Zm0,1.418a.456.456,0,1,1,.456-.456A.456.456,0,0,1,282.54,305.418Z" transform="translate(-281.578 -304)"/></g><g transform="translate(9.49 7.695)"><path class="a" d="M375.874,304a.962.962,0,1,0,.962.962A.963.963,0,0,0,375.874,304Zm0,1.418a.456.456,0,1,1,.456-.456A.456.456,0,0,1,375.874,305.418Z" transform="translate(-374.912 -304)"/></g><g transform="translate(2.403 5.063)"><path class="a" d="M95.874,200a.962.962,0,1,0,.962.962A.963.963,0,0,0,95.874,200Zm0,1.418a.456.456,0,1,1,.456-.456A.456.456,0,0,1,95.874,201.418Z" transform="translate(-94.912 -200)"/></g><g transform="translate(7.128 5.063)"><path class="a" d="M282.54,200a.962.962,0,1,0,.962.962A.963.963,0,0,0,282.54,200Zm0,1.418a.456.456,0,1,1,.456-.456A.456.456,0,0,1,282.54,201.418Z" transform="translate(-281.578 -200)"/></g><g transform="translate(9.49 5.063)"><path class="a" d="M375.874,200a.962.962,0,1,0,.962.962A.963.963,0,0,0,375.874,200Zm0,1.418a.456.456,0,1,1,.456-.456A.456.456,0,0,1,375.874,201.418Z" transform="translate(-374.912 -200)"/></g><g transform="translate(4.765 5.063)"><path class="a" d="M189.207,200a.962.962,0,1,0,.962.962A.963.963,0,0,0,189.207,200Zm0,1.418a.456.456,0,1,1,.456-.456A.456.456,0,0,1,189.207,201.418Z" transform="translate(-188.245 -200)"/></g><g transform="translate(1.296 8.827)"><path class="a" d="M53.09,348.774a.253.253,0,0,0-.358,0l-.824.824-.282-.282a.253.253,0,0,0-.358.358l.461.461a.253.253,0,0,0,.358,0l1-1A.253.253,0,0,0,53.09,348.774Z" transform="translate(-51.194 -348.7)"/></g></svg>