<svg xmlns="http://www.w3.org/2000/svg" xmlns:xlink="http://www.w3.org/1999/xlink" width="83.193" height="82.589" viewBox="0 0 83.193 82.589"><defs><style>.a{fill:#171513;opacity:0.7;}.b{fill:#e7a436;}.c{filter:url(#a);}</style><filter id="a" x="0" y="0" width="83.193" height="82.589" filterUnits="userSpaceOnUse"><feOffset dx="-1" dy="2" input="SourceAlpha"/><feGaussianBlur stdDeviation="1" result="b"/><feFlood flood-color="#e7a436" flood-opacity="0.698"/><feComposite operator="in" in2="b"/><feComposite in="SourceGraphic"/></filter></defs><g transform="translate(4758.844 4198.765)"><g class="c" transform="matrix(1, 0, 0, 1, -4758.84, -4198.77)"><path class="a" d="M48.158,11.008l57.193.566V87.6l-57.193-.566a20,20,0,0,1-20-20V31.008A20,20,0,0,1,48.158,11.008Z" transform="translate(-24.16 -10.01)"/></g><path class="b" d="M48.339,17.692v1.343a2.014,2.014,0,0,1-2.014,2.014h-.671l-2.191,15.34a4.028,4.028,0,0,1-3.988,3.459H8.865a4.028,4.028,0,0,1-3.988-3.459L2.685,21.048H2.014A2.014,2.014,0,0,1,0,19.034V17.692a2.014,2.014,0,0,1,2.014-2.014H7.665L16.627,3.356A2.685,2.685,0,0,1,20.97,6.515l-6.664,9.162H34.032L27.368,6.515a2.686,2.686,0,0,1,4.344-3.159l8.961,12.322h5.651A2.014,2.014,0,0,1,48.339,17.692ZM26.184,32.462v-9.4a2.014,2.014,0,1,0-4.028,0v9.4a2.014,2.014,0,0,0,4.028,0Zm9.4,0v-9.4a2.014,2.014,0,1,0-4.028,0v9.4a2.014,2.014,0,0,0,4.028,0Zm-18.8,0v-9.4a2.014,2.014,0,1,0-4.028,0v9.4a2.014,2.014,0,0,0,4.028,0Z" transform="translate(-4740.623 -4178.096)"/></g></svg>