<svg xmlns="http://www.w3.org/2000/svg" width="48.339" height="37.597" viewBox="0 0 48.339 37.597"><defs><style>.a{fill:#e7a436;}</style></defs><path class="a" d="M48.339,17.692v1.343a2.014,2.014,0,0,1-2.014,2.014h-.671l-2.191,15.34a4.028,4.028,0,0,1-3.988,3.459H8.865a4.028,4.028,0,0,1-3.988-3.459L2.685,21.048H2.014A2.014,2.014,0,0,1,0,19.034V17.692a2.014,2.014,0,0,1,2.014-2.014H7.665L16.627,3.356A2.685,2.685,0,0,1,20.97,6.515l-6.664,9.162H34.032L27.368,6.515a2.686,2.686,0,0,1,4.344-3.159l8.961,12.322h5.651A2.014,2.014,0,0,1,48.339,17.692ZM26.184,32.462v-9.4a2.014,2.014,0,1,0-4.028,0v9.4a2.014,2.014,0,0,0,4.028,0Zm9.4,0v-9.4a2.014,2.014,0,1,0-4.028,0v9.4a2.014,2.014,0,0,0,4.028,0Zm-18.8,0v-9.4a2.014,2.014,0,1,0-4.028,0v9.4a2.014,2.014,0,0,0,4.028,0Z" transform="translate(0 -2.25)"/></svg>