<svg xmlns="http://www.w3.org/2000/svg" width="12.959" height="12.96" viewBox="0 0 12.959 12.96"><defs><style>.a{fill:#727272;}</style></defs><g transform="translate(3.65 8.861)"><path class="a" d="M144.653,350.143a.253.253,0,1,0,.074.179A.255.255,0,0,0,144.653,350.143Z" transform="translate(-144.221 -350.069)"/></g><g transform="translate(0 0)"><path class="a" d="M12.574,9.244l-1.83-1.83a1.446,1.446,0,0,0-2.045,0l-.638.638h0l-.255.255L4.717,5.219l.893-.893a1.448,1.448,0,0,0,0-2.045L3.782.452a1.448,1.448,0,0,0-2.045,0L1.254.934a4.162,4.162,0,0,0,0,5.88L3.032,8.592a.253.253,0,1,0,.358-.358L1.612,6.456A3.657,3.657,0,0,1,1.3,1.649L3.221,3.571a.253.253,0,0,0,.358-.358L1.635,1.269,2.094.81a.941.941,0,0,1,1.329,0L5.252,2.638a.941.941,0,0,1,0,1.329L4.18,5.04a.253.253,0,0,0,0,.358L7.626,8.844a.253.253,0,0,0,.358,0l.255-.255,3.138,3.138a3.652,3.652,0,0,1-4.807-.313l-1.8-1.8a.253.253,0,0,0-.358.358l1.8,1.8a4.158,4.158,0,0,0,5.88,0l.482-.482a1.446,1.446,0,0,0,0-2.045Zm-.358,1.687-.459.459L8.6,8.231l.459-.459a.94.94,0,0,1,1.329,0l1.83,1.83a.94.94,0,0,1,0,1.329Z" transform="translate(-0.038 -0.029)"/></g><g transform="translate(3.724 3.725)"><path class="a" d="M147.563,147.244a.253.253,0,1,0,.074.179A.254.254,0,0,0,147.563,147.244Z" transform="translate(-147.131 -147.17)"/></g></svg>