<svg xmlns="http://www.w3.org/2000/svg" width="14.273" height="10.931" viewBox="0 0 14.273 10.931"><defs><style>.a{fill:#727272;}</style></defs><path class="a" d="M14.064,59.94h-.058a.963.963,0,0,0-.962.962v4.667H11.771l-.2-1.455h.317a.615.615,0,0,0,0-1.229H8.948a1.827,1.827,0,0,0-1.6-1.6v-.031a.209.209,0,0,0-.418,0v.031a1.827,1.827,0,0,0-1.6,1.6H4.735a.209.209,0,0,0,0,.418h7.156a.2.2,0,0,1,0,.393H2.381a.2.2,0,0,1,0-.393H3.927a.209.209,0,0,0,0-.418H2.381a.615.615,0,0,0,0,1.229H2.7l-.2,1.455H1.229V60.9a.963.963,0,0,0-.962-.962H.209A.209.209,0,0,0,0,60.149V70.662a.209.209,0,0,0,.209.209h.81a.209.209,0,0,0,.209-.209V66.735H2.344l-.482,3.56v0a.513.513,0,0,0,1.015.146l.658-3.514A.262.262,0,0,1,3.543,67v1.971a.209.209,0,0,0,.418,0V67a.677.677,0,0,0-.33-.582l.068-.361A1,1,0,0,1,4.35,67v3.456H3.961v-.605a.209.209,0,1,0-.418,0v.815a.209.209,0,0,0,.209.209h.807a.209.209,0,0,0,.209-.209V67a1.42,1.42,0,0,0-.991-1.36l.285-1.523h7.091L12,70.348a.094.094,0,0,1-.187.025v0L10.75,64.717a.209.209,0,0,0-.411.077l.158.843A1.42,1.42,0,0,0,9.5,67v3.665a.209.209,0,0,0,.209.209h.807a.209.209,0,0,0,.209-.209V67a.262.262,0,0,1,.008-.066l.658,3.514a.513.513,0,0,0,1.015-.146v0l-.482-3.56h1.115v3.927a.209.209,0,0,0,.209.209h.81a.209.209,0,0,0,.209-.209V60.149A.209.209,0,0,0,14.064,59.94ZM7.136,61.685a1.408,1.408,0,0,1,1.39,1.2H5.746A1.408,1.408,0,0,1,7.136,61.685ZM.81,60.9v4.667H.418V60.38A.545.545,0,0,1,.81,60.9Zm0,9.551H.418V66.735H.81ZM.418,66.316v-.33H2.445l-.045.33Zm2.047,4.052v0a.094.094,0,0,1-.187-.025l.843-6.235h.516ZM10.312,67v3.457H9.923V67a1,1,0,0,1,.651-.945l.068.361a.677.677,0,0,0-.33.582Zm3.15-6.093a.545.545,0,0,1,.392-.522v5.189h-.392Zm-1.634,5.085h2.027v.33H11.873Zm1.634,4.466V66.735h.392v3.718Z" transform="translate(0 -59.94)"/></svg>