<svg xmlns="http://www.w3.org/2000/svg" width="19.422" height="34.219" viewBox="0 0 19.422 34.219"><defs><style>.a{fill:#fff;}</style></defs><path class="a" d="M12.5,34.219H7.017a1.662,1.662,0,0,1-1.66-1.66V20.2H2.16A1.662,1.662,0,0,1,.5,18.539v-5.3a1.662,1.662,0,0,1,1.66-1.66h3.2V8.931a9.03,9.03,0,0,1,2.388-6.47A8.6,8.6,0,0,1,14.086,0l4.179.007a1.662,1.662,0,0,1,1.657,1.66V6.584a1.661,1.661,0,0,1-1.659,1.66H15.449c-.858,0-1.077.172-1.123.225-.077.087-.169.335-.169,1.017v2.1h3.894a1.687,1.687,0,0,1,.821.209,1.666,1.666,0,0,1,.854,1.452l0,5.3a1.662,1.662,0,0,1-1.66,1.659H14.157v12.36A1.662,1.662,0,0,1,12.5,34.219ZM7.363,32.213H12.15V19.3a1.11,1.11,0,0,1,1.108-1.108h4.46l0-4.6H13.258a1.109,1.109,0,0,1-1.108-1.108V9.487a3.416,3.416,0,0,1,.671-2.345,3.4,3.4,0,0,1,2.627-.9h2.468V2.012l-3.832-.006c-4.145,0-6.721,2.653-6.721,6.925v3.55a1.11,1.11,0,0,1-1.108,1.108H2.506v4.6H6.255A1.109,1.109,0,0,1,7.363,19.3Zm10.9-30.2h0Zm0,0" transform="translate(-0.5)"/></svg>