<svg xmlns="http://www.w3.org/2000/svg" width="219" height="60" viewBox="0 0 219 60"><defs><style>.a{fill:#e7a436;}.b{fill:#fff;}</style></defs><g transform="translate(0 0)"><path class="a" d="M20,0H219a0,0,0,0,1,0,0V40a20,20,0,0,1-20,20H0a0,0,0,0,1,0,0V20A20,20,0,0,1,20,0Z" transform="translate(0 0)"/></g><g transform="translate(23.561 13.463)"><path class="b" d="M1695.8,2296.415c0-5.125.008-10.247-.01-15.371,0-.529.131-.748.685-.788,1.715-.118,3.427-.294,5.141-.434.68-.055.688-.033.688.632q0,9.976,0,19.951c0,.088,0,.174,0,.263s.005.194.1.224c.123.036.175-.064.234-.158q1.9-3.059,3.8-6.112c.657-1.056,1.324-2.1,1.979-3.162a.776.776,0,0,1,.751-.374c1.931.008,3.861,0,5.792.005.153,0,.354-.062.445.082.116.182-.079.318-.165.455q-2.427,3.842-4.866,7.676c-.413.65-.818,1.305-1.245,1.947a.654.654,0,0,0-.005.813q3.2,4.934,6.386,9.883c.09.14.27.271.153.464-.1.163-.288.088-.439.088-1.861.006-3.721-.007-5.582.018a1.147,1.147,0,0,1-1.106-.61q-2.863-4.564-5.768-9.1c-.091-.144-.117-.454-.361-.363-.2.075-.1.345-.1.528q-.005,4.4,0,8.792c0,.718-.009.727-.74.729-1.7,0-3.405-.015-5.108.009-.505.008-.664-.163-.663-.666C1695.808,2306.7,1695.8,2301.555,1695.8,2296.415Z" transform="translate(-1544.074 -2279.713)"/><path class="b" d="M-912.62,2302.931c0-2.439-.011-4.878.01-7.318,0-.5-.144-.676-.657-.658-1.052.037-2.107,0-3.16.018-.4.008-.569-.106-.563-.531q.028-2.13,0-4.265c-.006-.449.174-.568.6-.559,1.035.024,2.072-.021,3.106.019.551.02.673-.188.675-.7a27.341,27.341,0,0,1,.2-5.093,6.316,6.316,0,0,1,2.567-4.3,6.786,6.786,0,0,1,2.362-.981,22.154,22.154,0,0,1,6.343-.159c.365.023.524.191.521.569q-.019,2,0,4c0,.385-.136.53-.523.523q-1.316-.023-2.633,0a2.078,2.078,0,0,0-2.311,2.225c-.056,1.12-.022,2.245-.049,3.368-.01.41.141.551.554.544,1.4-.019,2.809.009,4.213-.016.46-.008.628.122.574.6-.161,1.431-.3,2.862-.422,4.3-.034.379-.238.456-.561.455-1.246-.006-2.494.02-3.739-.012-.5-.012-.627.167-.626.639q.023,7.318.013,14.636c0,.813,0,.814-.812.814-1.668,0-3.336-.018-5,.01-.54.009-.692-.182-.687-.7.021-2.476.009-4.95.009-7.424Z" transform="translate(916.99 -2278.252)"/><path class="b" d="M-214,2466.339a13.311,13.311,0,0,1,5.376,1.075c.488.231.614.475.417,1.017-.4,1.1-.717,2.236-1.048,3.362-.127.433-.266.6-.767.38a9.4,9.4,0,0,0-4.522-.739,4.069,4.069,0,0,0-3.954,3.19,11,11,0,0,0,.089,6.075,3.991,3.991,0,0,0,3.578,2.83,9.01,9.01,0,0,0,4.838-.714c.428-.185.591-.092.716.326.347,1.156.7,2.314,1.1,3.454.181.519.014.765-.444.98a13.368,13.368,0,0,1-5.949,1.083,13.91,13.91,0,0,1-4.95-.869,8.31,8.31,0,0,1-5.347-6.173,16.877,16.877,0,0,1,.269-9.143,8.294,8.294,0,0,1,5.77-5.5A16.44,16.44,0,0,1-214,2466.339Z" transform="translate(265.534 -2455.417)"/><path class="b" d="M479.474,2296.354q0-7.662,0-15.323c0-.75,0-.76.746-.827,1.713-.155,3.428-.29,5.139-.455.484-.047.637.1.634.6-.018,4.2-.01,8.39-.01,12.584,0,.088-.008.177,0,.263.011.115-.06.281.073.333.171.071.233-.107.307-.218a5.93,5.93,0,0,1,1.864-1.749,8.422,8.422,0,0,1,10.64,2.316,9.227,9.227,0,0,1,1.576,3.7,19.948,19.948,0,0,1-.17,8.971c-1.2,4.49-4.846,6.852-9.522,6.248a6.585,6.585,0,0,1-4.287-2.217c-.172-.2-.309-.425-.466-.637-.067-.091-.091-.264-.252-.207-.144.051-.1.209-.1.325-.005.614-.015,1.228,0,1.841.01.374-.12.539-.516.536-1.721-.012-3.442-.014-5.162.006-.469.006-.5-.255-.5-.6q.007-3.212,0-6.425Q479.475,2300.881,479.474,2296.354Zm6.881,8.825a3.688,3.688,0,0,0,3.726,2.6,3.649,3.649,0,0,0,3.78-2.521,12.019,12.019,0,0,0,.078-6.846c-.5-1.87-1.973-2.772-4.052-2.731a3.693,3.693,0,0,0-3.611,2.826,11.1,11.1,0,0,0-.282,3.348A9.452,9.452,0,0,0,486.355,2305.179Z" transform="translate(-398.382 -2279.654)"/><path class="b" d="M-615.685,2468.871c0-.769.035-1.481-.011-2.188-.035-.542.157-.695.682-.685,1.65.028,3.3.025,4.95,0,.475,0,.629.139.628.632q-.025,10-.013,20.006c0,.771,0,.771-.787.772-1.6,0-3.2-.013-4.792.012-.489.007-.706-.125-.672-.651.039-.594.013-1.192.009-1.789,0-.1.032-.231-.091-.275s-.184.071-.237.159c-1.479,2.4-3.758,3.117-6.406,2.991a7.8,7.8,0,0,1-5.754-2.666,8.665,8.665,0,0,1-1.938-3.862,19.723,19.723,0,0,1,.135-9.688,7.647,7.647,0,0,1,4.069-5.173,8.246,8.246,0,0,1,7.879.078,5.45,5.45,0,0,1,1.957,1.947A.622.622,0,0,0-615.685,2468.871Zm-.258,6.73a6.206,6.206,0,0,0-.835-3.326,3.688,3.688,0,0,0-3.813-1.573,3.429,3.429,0,0,0-3.145,2.69,13.059,13.059,0,0,0-.013,6.611,3.58,3.58,0,0,0,3.806,2.764,3.649,3.649,0,0,0,3.7-2.774,10.792,10.792,0,0,0,.307-3.075C-615.939,2476.478-615.926,2476.04-615.943,2475.6Z" transform="translate(647.281 -2454.636)"/><path class="b" d="M903.7,2477.118a12.471,12.471,0,0,1-.868,5.192,8.867,8.867,0,0,1-6.67,5.456,13.66,13.66,0,0,1-7.381-.314,8.67,8.67,0,0,1-5.884-6.223,15.871,15.871,0,0,1,.022-8.681,8.741,8.741,0,0,1,6.8-6.4,13.791,13.791,0,0,1,7.085.117,8.987,8.987,0,0,1,6.642,7.337A16.479,16.479,0,0,1,903.7,2477.118Zm-6.849-3.583a3.743,3.743,0,0,0-3.7-2.656,3.62,3.62,0,0,0-3.81,2.469,12.171,12.171,0,0,0-.118,6.8,3.616,3.616,0,0,0,3.907,2.837,3.746,3.746,0,0,0,3.8-2.932,11.439,11.439,0,0,0,.255-3.185A9.988,9.988,0,0,0,896.85,2473.535Z" transform="translate(-777.821 -2454.854)"/><path class="b" d="M1287.687,2476.884a12.26,12.26,0,0,1,1.045-5.789,8.568,8.568,0,0,1,5.166-4.649,13.666,13.666,0,0,1,7.989-.262,8.788,8.788,0,0,1,6.729,6.928,16.11,16.11,0,0,1-.068,7.874,8.7,8.7,0,0,1-6.394,6.56,13.109,13.109,0,0,1-9.306-.63,8.592,8.592,0,0,1-4.564-5.31A12.768,12.768,0,0,1,1287.687,2476.884Zm14.708-2.213a3.968,3.968,0,0,0-3.351-3.777,3.778,3.778,0,0,0-4.48,2.591,12.164,12.164,0,0,0-.025,6.8,3.375,3.375,0,0,0,2.333,2.444c1.909.6,4.43.172,5.293-2.517a10.256,10.256,0,0,0,.34-3.07A18.609,18.609,0,0,0,1302.395,2474.671Z" transform="translate(-1159.649 -2454.826)"/><path class="b" d="M100.762,2479.1c-2.071,0-4.142.01-6.213-.008-.445,0-.585.126-.532.58.27,2.3,1.53,3.452,4.09,3.589a17.449,17.449,0,0,0,7.332-1.121c.351-.135.481-.029.564.289.306,1.17.606,2.343.936,3.505.136.479-.084.667-.483.816a22.089,22.089,0,0,1-7.8,1.285,14.842,14.842,0,0,1-5.917-1.036,7.962,7.962,0,0,1-4.7-5.191,12.891,12.891,0,0,1-.559-3.891,21.648,21.648,0,0,1,.317-5.185,8.256,8.256,0,0,1,5.878-6.4,12.957,12.957,0,0,1,8.963.225,7.664,7.664,0,0,1,4.5,5.414c.613,2.2.392,4.458.441,6.7.01.449-.292.441-.607.441q-3.107,0-6.214,0Zm-2.9-4.254c1.123,0,2.246,0,3.369,0,.247,0,.533.021.536-.338a4.4,4.4,0,0,0-1.01-3.327c-1.172-1.206-2.643-1.156-4.123-.838a2.945,2.945,0,0,0-2.091,1.7,5.986,5.986,0,0,0-.55,2.232c-.026.444.113.589.553.582,1.1-.024,2.211-.009,3.316-.009Z" transform="translate(-29.146 -2454.755)"/></g></svg>