<svg xmlns="http://www.w3.org/2000/svg" width="13.579" height="14.075" viewBox="0 0 13.579 14.075"><defs><style>.a{fill:#727272;}</style></defs><g transform="translate(0)"><g transform="translate(0 13.306)"><g transform="translate(0 0)"><path class="a" d="M21.526,367.542a.385.385,0,1,0,.113.272A.387.387,0,0,0,21.526,367.542Z" transform="translate(-20.87 -367.43)"/></g></g><g transform="translate(0.124 0)"><g transform="translate(0 0)"><path class="a" d="M36.006,94.349a5.125,5.125,0,0,0-2.866-.871h-.225a3.247,3.247,0,0,0,1.155-2.484V88.527a2.183,2.183,0,0,0,.26-1.035V85.563a.385.385,0,0,0-.385-.385H29.472a2.253,2.253,0,0,0-2.25,2.25v.634a1.618,1.618,0,0,0,.343,1v1.935a3.247,3.247,0,0,0,1.155,2.484h-.205A5.151,5.151,0,0,0,23.5,97.457a.384.384,0,1,0,.749.174,4.355,4.355,0,0,1,3.8-3.359l2.5,2.5a.384.384,0,0,0,.544,0l2.5-2.5a4.351,4.351,0,0,1,1.975.716.384.384,0,0,0,.429-.638Zm-8.015-6.287v-.634a1.483,1.483,0,0,1,1.481-1.481h4.09v1.545a1.429,1.429,0,0,1-1.428,1.428H28.848A.858.858,0,0,1,27.991,88.062Zm2.837,7.9-1.712-1.712h3.423Zm.005-2.481H30.8a2.487,2.487,0,0,1-2.469-2.484V89.6a1.619,1.619,0,0,0,.514.084h3.286a2.183,2.183,0,0,0,1.168-.337v1.643A2.487,2.487,0,0,1,30.833,93.478Z" transform="translate(-23.49 -85.178)"/></g></g><g transform="translate(12.81 9.925)"><path class="a" d="M293.251,295.806a.384.384,0,1,0,.113.272A.387.387,0,0,0,293.251,295.806Z" transform="translate(-292.595 -295.694)"/></g></g></svg>