<?xml version="1.0" encoding="utf-8"?>
<!-- Generator: Adobe Illustrator 24.1.2, SVG Export Plug-In . SVG Version: 6.00 Build 0)  -->
<svg version="1.1" id="Capa_1" xmlns="http://www.w3.org/2000/svg" xmlns:xlink="http://www.w3.org/1999/xlink" x="0px" y="0px"
	 viewBox="0 0 26.78 30.85" style="enable-background:new 0 0 26.78 30.85;" xml:space="preserve">
<style type="text/css">
	.st0{fill:#D85611;}
</style>
<path id="Icon_metro-fire" class="st0" d="M7.54,30.85c-2.06-4.28-0.96-6.73,0.62-9.04c1.04-1.52,1.78-3.23,2.18-5.04
	c0.87,1.34,1.17,2.97,0.82,4.53c1.96-2.4,2.86-5.49,2.49-8.57c5.43,3.8,7.75,12.02,4.62,18.11c16.64-9.42,4.14-23.5,1.96-25.09
	c0.73,1.59,0.86,4.27-0.6,5.58C17.15,1.93,11.02,0,11.02,0c0.72,4.85-2.63,10.16-5.87,14.12C5.18,12.34,4.74,10.57,3.9,9
	c-0.23,3.51-2.91,6.38-3.64,9.9C-0.73,23.67,1,27.16,7.54,30.85z"/>
</svg>
