<?xml version="1.0" encoding="utf-8"?>
<!-- Generator: Adobe Illustrator 24.1.2, SVG Export Plug-In . SVG Version: 6.00 Build 0)  -->
<svg version="1.1" id="Capa_1" xmlns="http://www.w3.org/2000/svg" xmlns:xlink="http://www.w3.org/1999/xlink" x="0px" y="0px"
	 viewBox="0 0 29.26 46.82" style="enable-background:new 0 0 29.26 46.82;" xml:space="preserve">
<style type="text/css">
	.st0{fill:#AC9B83;}
</style>
<path id="Icon_map-restaurant" class="st0" d="M11.71,0.91v10.8H9.75V0.98c0-0.54-0.44-0.98-0.98-0.98S7.8,0.44,7.8,0.98v10.73H5.85
	V0.94C5.83,0.4,5.38-0.02,4.84,0C4.34,0.02,3.93,0.41,3.9,0.91v10.8H1.95V0.99c0-0.54-0.43-0.98-0.97-0.98C0.46,0,0.02,0.41,0,0.94
	v14.12c0,2.04,1.95,3.38,3.9,3.38V43.9c0,3.9,5.85,3.9,5.85,0V18.43c1.95,0,3.9-1.62,3.9-3.15V0.94c-0.03-0.54-0.49-0.95-1.03-0.92
	C12.14,0.04,11.74,0.43,11.71,0.91L11.71,0.91z M20.48,3.9v24.39h1.95V43.9c0,3.9,6.83,3.9,6.83,0V3.9
	C29.26-0.97,20.48-0.97,20.48,3.9z"/>
</svg>
