<?xml version="1.0" encoding="utf-8"?>
<!-- Generator: Adobe Illustrator 24.1.2, SVG Export Plug-In . SVG Version: 6.00 Build 0)  -->
<svg version="1.1" id="Capa_1" xmlns="http://www.w3.org/2000/svg" xmlns:xlink="http://www.w3.org/1999/xlink" x="0px" y="0px"
	 viewBox="0 0 46.55 27.56" style="enable-background:new 0 0 46.55 27.56;" xml:space="preserve">
<style type="text/css">
	.st0{fill:#FFFFFF;}
</style>
<g id="dVs1cE.tif" transform="translate(570.03 -85.122)">
	<g id="Grupo_1395" transform="translate(-570.03 85.122)">
		<path id="Trazado_29849" class="st0" d="M35.28,27.56h-1c-0.12-0.03-0.23-0.06-0.35-0.07c-3.02-0.26-5.82-1.68-7.82-3.96
			c-0.12-0.13-0.24-0.25-0.39-0.41l-2.48,3.69l-2.47-3.68l-0.45,0.49c-2.47,2.8-6.16,4.21-9.87,3.77c-4.78-0.47-8.77-3.86-10-8.51
			C0.26,18.21,0.14,17.52,0,16.85v-1.91c0.03-0.08,0.06-0.17,0.08-0.25c0.08-1.6,0.58-3.14,1.46-4.48c0.73-0.93,0.75-2.24,0.04-3.19
			C1.09,6.16,0.53,5.34,0,4.5V4.32c2.36,0,4.72,0.02,7.09,0.01C7.3,4.3,7.5,4.23,7.67,4.11c0.88-0.47,1.73-0.99,2.64-1.42
			c2.91-1.33,6.02-2.17,9.2-2.49c3.07-0.34,6.18-0.25,9.23,0.26c3.37,0.55,6.6,1.73,9.53,3.49c0.37,0.2,0.78,0.31,1.2,0.32
			c2.08,0.03,4.15,0.02,6.23,0.02h0.81c-0.15,0.24-0.25,0.38-0.33,0.52c-0.54,1.04-1.08,2.09-1.63,3.13
			c-0.31,0.6-0.23,1.32,0.21,1.83c1.56,2.34,2.14,5.21,1.6,7.98c-0.95,5.02-3.98,8.14-8.89,9.46
			C36.74,27.38,36.01,27.49,35.28,27.56z M34.81,25.16c5.1,0.07,9.28-4.01,9.35-9.11c0-0.02,0-0.04,0-0.07
			c0.1-5.07-3.93-9.26-9-9.36c-0.1,0-0.19,0-0.29,0c-5.09-0.03-9.24,4.07-9.27,9.16c0,0,0,0,0,0.01c-0.06,5.12,4.05,9.32,9.17,9.38
			C34.79,25.16,34.8,25.16,34.81,25.16L34.81,25.16z M20.95,15.88c0.02-5.11-4.11-9.27-9.22-9.29c-0.02,0-0.04,0-0.07,0
			c-5.14,0.01-9.29,4.19-9.27,9.33c0,0.01,0,0.03,0,0.04c0.09,5.1,4.25,9.18,9.35,9.16C16.81,25.07,20.92,20.96,20.95,15.88z
			 M34.1,4.19c-3.42-1.48-7.13-2.21-10.86-2.14c-3.83,0-9.58,1.11-10.86,2.08c5.89,0.78,9.51,4.08,10.93,9.98
			c0.43-2.64,1.73-5.05,3.71-6.85C28.98,5.49,31.46,4.41,34.1,4.19L34.1,4.19z"/>
		<path id="Trazado_29850" class="st0" d="M34.84,10.01c3.17-0.03,5.76,2.51,5.79,5.68c0,0.01,0,0.02,0,0.02
			c0.01,3.17-2.55,5.75-5.72,5.77c-3.18,0.03-5.77-2.52-5.8-5.69c0-0.01,0-0.02,0-0.04c-0.01-3.16,2.55-5.73,5.71-5.74
			C34.81,10.01,34.83,10.01,34.84,10.01z M34.94,12c-2.07-0.03-3.78,1.61-3.83,3.68c-0.01,2.05,1.62,3.73,3.66,3.81
			c2.08,0.04,3.81-1.62,3.85-3.7C38.63,13.73,36.99,12.04,34.94,12L34.94,12z"/>
		<path id="Trazado_29851" class="st0" d="M11.53,21.48c-3.17,0.01-5.76-2.55-5.77-5.72c-0.01-3.17,2.56-5.74,5.73-5.75
			c0,0,0.01,0,0.01,0c3.15-0.04,5.74,2.48,5.79,5.64c0,0.03,0,0.07,0,0.1c0,3.17-2.57,5.73-5.73,5.74
			C11.54,21.48,11.53,21.48,11.53,21.48z M11.55,12c-2.07,0-3.76,1.65-3.8,3.71c0.02,2.03,1.63,3.69,3.66,3.77
			c2.07,0.05,3.79-1.58,3.86-3.65c0.04-2.07-1.6-3.78-3.67-3.83C11.59,12,11.57,12,11.55,12z"/>
		<path id="Trazado_29852" class="st0" d="M36.76,15.79c-0.03,1.05-0.9,1.87-1.95,1.85c-1.05-0.03-1.87-0.91-1.84-1.95c0,0,0,0,0,0
			c0.01-1.03,0.86-1.86,1.89-1.84c0.03,0,0.06,0,0.1,0C35.99,13.89,36.79,14.76,36.76,15.79z"/>
		<path id="Trazado_29853" class="st0" d="M9.61,15.73c-0.02-1.03,0.79-1.88,1.82-1.9c0.04,0,0.07,0,0.11,0
			c1.05,0,1.9,0.84,1.91,1.89c0,1.06-0.86,1.93-1.93,1.93c-1.04,0.01-1.9-0.82-1.91-1.87C9.61,15.77,9.61,15.75,9.61,15.73z"/>
	</g>
</g>
</svg>
