<?xml version="1.0" encoding="utf-8"?>
<!-- Generator: Adobe Illustrator 24.1.2, SVG Export Plug-In . SVG Version: 6.00 Build 0)  -->
<svg version="1.1" id="Capa_1" xmlns="http://www.w3.org/2000/svg" xmlns:xlink="http://www.w3.org/1999/xlink" x="0px" y="0px"
	 viewBox="0 0 31.06 27.62" style="enable-background:new 0 0 31.06 27.62;" xml:space="preserve">
<style type="text/css">
	.st0{fill:#5C8459;}
</style>
<path id="Icon_awesome-leaf" class="st0" d="M1.61,0.52C1.79,0.09,2.27-0.11,2.7,0.06c0.19,0.08,0.34,0.22,0.43,0.4
	c1.64,2.92,4.73,4.73,8.08,4.72h4.31c5.72,0,10.35,4.64,10.35,10.35c-0.01,0.37-0.03,0.74-0.08,1.1c-3.44-2.46-8.41-4.56-15.45-4.56
	c-0.48,0.02-0.85,0.42-0.83,0.89c0.02,0.45,0.38,0.82,0.83,0.83c13.56,0,19.3,8.31,20.58,11.43c0.36,0.88-0.06,1.89-0.95,2.25
	c-0.88,0.36-1.89-0.06-2.25-0.94c-0.91-1.9-2.24-3.56-3.88-4.89c-2.18,2.97-5.77,4.55-9.43,4.16C5.96,25.21,0,17.61,0,8.32
	C0,5.64,0.55,2.98,1.61,0.52z"/>
</svg>
