<svg xmlns="http://www.w3.org/2000/svg" width="219" height="60" viewBox="0 0 219 60"><defs><style>.a{fill:#e7a436;}.b{fill:#fff;}</style></defs><g transform="translate(0.341)"><g transform="translate(0 0)"><path class="a" d="M20,0H219a0,0,0,0,1,0,0V40a20,20,0,0,1-20,20H0a0,0,0,0,1,0,0V20A20,20,0,0,1,20,0Z" transform="translate(-0.341 0)"/></g><g transform="translate(24.907 10.097)"><g transform="translate(0 0)"><path class="b" d="M-918.721,792.3c-.15.675-.263,1.36-.459,2.021a11.2,11.2,0,0,1-.724,1.944,3.968,3.968,0,0,1-6.537,1.091,6.971,6.971,0,0,1-2.1-4.731c-.211-3.016-.24-6.044-.341-9.067a3.711,3.711,0,0,0-.128-1.1,3.875,3.875,0,0,0-.245.409,34.077,34.077,0,0,0-3.02,12.956,1,1,0,0,1-.815,1.071,2.831,2.831,0,0,1-3.655-2.065,33.6,33.6,0,0,1-.765-4.691c-.222-2.346-.31-4.7-.459-7.057-.009-.137-.052-.271-.121-.617a7.891,7.891,0,0,0-.63.872,24.763,24.763,0,0,0-2.695,9.753c-.087,1.362-.111,2.728-.162,4.093-.039,1.045-.267,1.342-1.335,1.363a13.8,13.8,0,0,1-2.577-.221,1.148,1.148,0,0,1-1.045-1.242c0-.531-.091-1.062-.162-1.8-1.016,2.176-2.328,3.7-4.812,3.254-2.21-.4-3.371-1.914-3.881-4.176-1.259,2.209-2.864,3.815-5.349,4.176-2.6.377-4.39-.855-5.64-3.09-.335.49-.608.951-.94,1.364a4.232,4.232,0,0,1-6.146.826,7.1,7.1,0,0,1-2.734-5.023,25.118,25.118,0,0,1,.628-9.45c.154-.668.061-.919-.663-.86-.842.069-1.879-.214-2.48.184-.583.385-.731,1.436-1.05,2.2a43.813,43.813,0,0,1-6.852,11.374,1.841,1.841,0,0,0-.359,1.066c-.071,2.728.026,5.466-.192,8.18a15.774,15.774,0,0,1-1.166,4.661,6.55,6.55,0,0,1-8.185,3.762,4.774,4.774,0,0,1-3.265-6.417,10.151,10.151,0,0,1,2.02-3.338c1.835-1.985,3.846-3.809,5.8-5.68,1.106-1.057,1.142-1.107.8-2.832-1.413,1.8-3.075,3.079-5.416,3.13-2.444.053-3.953-1.337-5.087-3.4-1.054,2.119-2.468,3.678-4.994,3.338-2.284-.307-3.459-1.854-3.928-4.117-1.643,2.733-3.768,4.612-7.072,4.084-2.849-.455-3.958-2.733-4.78-5.355a6.743,6.743,0,0,1-.371.772,26.8,26.8,0,0,1-2.342,3.412,3.964,3.964,0,0,1-6.169-.435,11.211,11.211,0,0,1-1.908-5.484c-.02-.142-.033-.286-.074-.637-.2.373-.286.588-.412.78a32.764,32.764,0,0,1-2.794,4.19c-2.582,2.869-5.924,3.436-9.563,2.586a10.757,10.757,0,0,1-2.337-.929,1.107,1.107,0,0,1-.528-1.579,8.5,8.5,0,0,1,.361-.814c.864-1.507,1.493-1.632,2.892-.62a7.721,7.721,0,0,0,1.2.745,2.2,2.2,0,0,0,3.337-1.807,4.348,4.348,0,0,0-1.076-3.6c-1.051-1.218-2.206-2.346-3.4-3.6-.267.428-.41.65-.545.876-1.276,2.129-2.5,4.293-3.847,6.375a28.165,28.165,0,0,1-2.751,3.506,6.425,6.425,0,0,1-1.923,1.375c-1.716.845-3.377.247-3.862-1.58a21.714,21.714,0,0,1-.69-5.2c-.042-2.851.157-5.706.246-8.559.02-.637,0-1.275,0-2.175-.392.381-.679.613-.909.891a23.147,23.147,0,0,0-3.807,7.036,39.535,39.535,0,0,0-2.277,8.992c-.062.554-.319.886-.889.894a13.326,13.326,0,0,1-1.858-.049,1.49,1.49,0,0,1-1.29-1.2,10.744,10.744,0,0,1-.35-2.416c0-5.561.048-11.123.087-16.684.005-.74.266-.959,1.024-.9a6.728,6.728,0,0,1,.812.118c2.021.417,2.2.642,2.2,2.68,0,2.654,0,5.308.122,8.007.115-.3.233-.6.344-.906a29.212,29.212,0,0,1,3.039-6.848,11.1,11.1,0,0,1,1.979-2.2,3.183,3.183,0,0,1,3.88-.374c.345.2.7.382,1.04.582a2.63,2.63,0,0,1,1.368,2.6c-.126,3.3-.208,6.6-.271,9.9a14.651,14.651,0,0,0,.189,2.519c.055.351.294.851.564.94s.753-.176,1.012-.423a6.767,6.767,0,0,0,1.161-1.446q2.149-3.658,4.217-7.363a.938.938,0,0,0-.068-.833,4.093,4.093,0,0,1-.219-4.816,4.449,4.449,0,0,1,4.327-2.5c1.518.077,2.331,1,1.85,2.425a26.4,26.4,0,0,1-1.824,3.625,5,5,0,0,1-.394.544c.757.565,1.492,1.1,2.215,1.656.809.62,1.627,1.229,2.4,1.887a5.95,5.95,0,0,1,2.335,5.976,7.074,7.074,0,0,0,.572-.5,10.289,10.289,0,0,0,3.015-7.3c-.062-2.7.005-5.412.015-8.119,0-.243,0-.487,0-.948-1.47,0-2.879.006-4.287,0-.843-.005-1-.171-.982-1a4.1,4.1,0,0,1,.121-.881c.341-1.36.509-1.461,1.874-1.425,1.141.03,2.283.006,3.519.006.012-.2.032-.463.042-.724.058-1.488.1-2.977.176-4.465.067-1.286.452-1.6,1.7-1.338.846.18,1.673.455,2.5.713a.928.928,0,0,1,.681,1.083c-.09,1.412-.131,2.827-.188,4.241-.01.24,0,.481,0,.782,1.124.066,2.185.126,3.247.19.844.051,1.687.111,2.531.162.486.029.744.272.694.764a6.489,6.489,0,0,1-.2,1.165,1.121,1.121,0,0,1-1.253.9c-1.685-.052-3.372-.017-5.13-.017-.088,2.135-.209,4.114-.242,6.095-.049,3-.086,6.007-.023,9.009a8.974,8.974,0,0,0,.608,2.815c.45,1.234,1.325,1.448,2.324.573a8.759,8.759,0,0,0,2.854-5.8c.229-1.916.42-3.843.794-5.732a9.5,9.5,0,0,1,2.465-4.61,5,5,0,0,1,7.769.115c.107.123.219.242.414.458.021-.285.041-.445.044-.606a.9.9,0,0,1,1.035-1,14.692,14.692,0,0,1,2.534.517,1.124,1.124,0,0,1,.8,1.263c-.083,3.772-.164,7.545-.159,11.318a21.626,21.626,0,0,0,.437,3.532,2.722,2.722,0,0,0,.534,1.128,1.337,1.337,0,0,0,2.037.219,4.416,4.416,0,0,0,1.524-3.77c-.423-3.969-.16-7.852,1.849-11.413a8.933,8.933,0,0,1,2.071-2.494,4.81,4.81,0,0,1,6.51.411c.26.256.5.533.707.754.175-.421.236-1.017.54-1.191a4.189,4.189,0,0,1,1.564-.237,1.015,1.015,0,0,1,.295.041c1.98.392,2.124.59,2.1,2.576-.053,3.947-.086,7.895-.127,11.842,0,.268,0,.536,0,.954a3.245,3.245,0,0,0,.381-.367,32.315,32.315,0,0,0,4.573-9.636,1.006,1.006,0,0,0-.321-1.158,3.055,3.055,0,0,1-.542-3.585,2.89,2.89,0,0,1,2.726-1.972,1.932,1.932,0,0,1,2.178,2.209c-.023.362-.063.724-.1,1.191,1.508-.28,2.916-.546,4.327-.8a4.109,4.109,0,0,1,.889-.074,1.994,1.994,0,0,1,2.127,2.369c-.173,1.4-.543,2.77-.813,4.157a17.975,17.975,0,0,0-.063,8.115,5.489,5.489,0,0,0,.909,1.844,1.409,1.409,0,0,0,2.173.194,3.645,3.645,0,0,0,1.3-3.3,19.2,19.2,0,0,1,1.321-11.141,11.066,11.066,0,0,1,1.45-2.244,5.011,5.011,0,0,1,7.954-.095c.1.108.193.213.377.417.027-.286.045-.465.06-.644.049-.589.394-.989.957-.917a18.215,18.215,0,0,1,2.807.6c.585.172.659.71.641,1.282-.1,3.027-.211,6.055-.227,9.083-.009,1.633.145,3.269.27,4.9a4.56,4.56,0,0,0,.352,1.361,1.438,1.438,0,0,0,2.6.472,7.951,7.951,0,0,0,1.995-5.023c.114-3.921.1-7.845.146-11.767.012-1.115.239-1.337,1.326-1.2a15.137,15.137,0,0,1,1.753.347c.956.236,1.137.464,1.14,1.447,0,1.961-.008,3.923-.014,5.884a1.34,1.34,0,0,0,.159.749c.086-.24.174-.48.257-.72.6-1.709,1.176-3.423,1.792-5.124a11.841,11.841,0,0,1,.776-1.687,1.53,1.53,0,0,1,1.967-.925,7.447,7.447,0,0,1,1.494.438,2.68,2.68,0,0,1,1.741,2.608c.1,2.8.268,5.6.411,8.4.006.12.036.239.084.549.3-1.336.48-2.509.826-3.633q1.083-3.514,2.316-6.982a1.8,1.8,0,0,1,2.579-1.277,14.042,14.042,0,0,1,1.865.745,2.383,2.383,0,0,1,1.434,2.516q-.145,5.06-.1,10.124a14.536,14.536,0,0,0,.472,3,3.828,3.828,0,0,0,.635,1.331,1.228,1.228,0,0,0,2.2-.06,11.648,11.648,0,0,0,.863-2.123c.18-.513.232-1.074.446-1.569.117-.272.445-.615.688-.624.217-.007.454.4.67.63a1.055,1.055,0,0,1,.133.262Zm-92.6-5.71a10.907,10.907,0,0,0-.864-4.765,2.446,2.446,0,0,0-4.321-.4,6.714,6.714,0,0,0-1.046,2.034,19.16,19.16,0,0,0-.675,7.51,8.234,8.234,0,0,0,1.068,3.757,1.938,1.938,0,0,0,3.255.486,7.476,7.476,0,0,0,1.549-2.32A16.611,16.611,0,0,0-1011.321,786.593Zm20.045-.075.2-.038a32.9,32.9,0,0,0-.881-4.489,2.324,2.324,0,0,0-4.109-.757,7.151,7.151,0,0,0-1.347,2.362,16.546,16.546,0,0,0-.678,7.932,10.411,10.411,0,0,0,1.064,3.288,1.837,1.837,0,0,0,3.077.478,7.168,7.168,0,0,0,1.6-2.361A16.582,16.582,0,0,0-991.275,786.518Zm27.97,2.461.235.035a7.853,7.853,0,0,0,.015,1.484,19.875,19.875,0,0,0,.935,3.939c.742,1.755,2.41,1.942,3.695.52a6.852,6.852,0,0,0,1.193-1.945,16.573,16.573,0,0,0,.938-8.253,9.35,9.35,0,0,0-.865-3.114,2.327,2.327,0,0,0-3.923-.5,5.143,5.143,0,0,0-1.231,2.158C-962.751,785.169-962.988,787.083-963.305,788.979ZM-990.826,800.5c-2.156,2.2-4.253,4.184-5.451,6.861a6.473,6.473,0,0,0-.554,2.36,2.261,2.261,0,0,0,3.436,2.145,3.58,3.58,0,0,0,1.812-2.507A29.727,29.727,0,0,0-990.826,800.5Z" transform="translate(1087.681 -766.288)"/><path class="b" d="M-1177.724,769.006a11.637,11.637,0,0,0-.963.815,13.852,13.852,0,0,0-3.469,7.674,9.268,9.268,0,0,0,1.29,6.853c.173.254.082.687.113,1.037a3.206,3.206,0,0,1-.977.057,6.6,6.6,0,0,1-4.5-6.8,15.284,15.284,0,0,1,8.059-11.918,4.227,4.227,0,0,1,4.594.59,1.657,1.657,0,0,1,.5,1.086c-.016,8.613-.039,17.227-.128,25.84a10.372,10.372,0,0,1-1.8,5.823,6.1,6.1,0,0,1-2.775,2.293c-.273.11-.774.183-.886.045a1.291,1.291,0,0,1-.116-.948c.259-1.309.7-2.6.828-3.916.188-1.972.21-3.964.224-5.948.05-7.1.068-14.2.093-21.3C-1177.646,769.932-1177.689,769.574-1177.724,769.006Z" transform="translate(1186.273 -766.292)"/></g></g></g></svg>