<svg xmlns="http://www.w3.org/2000/svg" width="77" height="77" viewBox="0 0 77 77"><defs><style>.a{fill:#e7a436;}.b{fill:#fff;}</style></defs><g transform="translate(-1386 -4614)"><rect class="a" width="77" height="77" rx="14" transform="translate(1386 4614)"/><g transform="translate(1407 4635)"><path class="b" d="M23.525,0H10.693A10.7,10.7,0,0,0,0,10.693V23.525A10.7,10.7,0,0,0,10.693,34.219H23.525A10.7,10.7,0,0,0,34.219,23.525V10.693A10.7,10.7,0,0,0,23.525,0Zm7.485,23.525a7.494,7.494,0,0,1-7.485,7.485H10.693a7.494,7.494,0,0,1-7.485-7.485V10.693a7.494,7.494,0,0,1,7.485-7.485H23.525a7.494,7.494,0,0,1,7.485,7.485Z"/><g transform="translate(8.555 8.555)"><path class="b" d="M136.555,128a8.555,8.555,0,1,0,8.555,8.555A8.555,8.555,0,0,0,136.555,128Zm0,13.9a5.347,5.347,0,1,1,5.347-5.347A5.354,5.354,0,0,1,136.555,141.9Z" transform="translate(-128 -128)"/></g><g transform="translate(25.166 6.773)"><circle class="b" cx="1.14" cy="1.14" r="1.14"/></g></g></g></svg>