<svg xmlns="http://www.w3.org/2000/svg" width="77" height="77" viewBox="0 0 77 77"><defs><style>.a{fill:#e7a436;}.b{fill:#fff;}</style></defs><g transform="translate(-1486 -4614)"><rect class="a" width="77" height="77" rx="14" transform="translate(1486 4614)"/><g transform="translate(2071.479 4553.211)"><g transform="translate(-570.03 85.122)"><path class="b" d="M-534.757,112.684h-1a3.223,3.223,0,0,0-.353-.075,11.747,11.747,0,0,1-7.824-3.956c-.116-.13-.241-.253-.386-.406l-2.482,3.69-2.471-3.68-.45.485a11.377,11.377,0,0,1-9.873,3.767,11.51,11.51,0,0,1-10-8.511c-.177-.667-.293-1.35-.437-2.026v-1.907a1.4,1.4,0,0,0,.076-.255,9,9,0,0,1,1.459-4.478,2.626,2.626,0,0,0,.036-3.192c-.484-.861-1.044-1.679-1.57-2.516v-.182c2.363.005,4.725.016,7.088.007a1.373,1.373,0,0,0,.583-.213c.881-.468,1.735-.992,2.636-1.416a29.214,29.214,0,0,1,9.2-2.493,33.454,33.454,0,0,1,9.233.26,26.964,26.964,0,0,1,9.529,3.491,2.512,2.512,0,0,0,1.195.32c2.075.034,4.151.021,6.226.024h.81c-.152.244-.249.379-.325.524-.544,1.043-1.08,2.09-1.626,3.131a1.657,1.657,0,0,0,.207,1.832,10.693,10.693,0,0,1,1.6,7.979c-.952,5.019-3.977,8.142-8.888,9.459A19.574,19.574,0,0,1-534.757,112.684Zm-.464-2.4a9.232,9.232,0,0,0,9.35-9.179,9.183,9.183,0,0,0-9.289-9.36,9.212,9.212,0,0,0-9.268,9.162A9.275,9.275,0,0,0-535.221,110.285ZM-549.087,101a9.257,9.257,0,0,0-9.29-9.29,9.3,9.3,0,0,0-9.274,9.364,9.315,9.315,0,0,0,9.35,9.159A9.28,9.28,0,0,0-549.087,101Zm13.149-11.683a26.1,26.1,0,0,0-10.857-2.136c-3.834,0-9.577,1.106-10.858,2.077,5.888.782,9.51,4.079,10.932,9.98a11.832,11.832,0,0,1,3.709-6.85A12.02,12.02,0,0,1-535.937,89.316Z" transform="translate(570.03 -85.122)"/><path class="b" d="M-244.879,195.048a5.732,5.732,0,0,1,5.787,5.7,5.76,5.76,0,0,1-5.722,5.772,5.75,5.75,0,0,1-5.805-5.731A5.724,5.724,0,0,1-244.879,195.048Zm.1,1.988a3.784,3.784,0,0,0-3.834,3.678,3.8,3.8,0,0,0,3.665,3.807,3.776,3.776,0,0,0,3.85-3.7A3.766,3.766,0,0,0-244.784,197.036Z" transform="translate(279.713 -185.035)"/><path class="b" d="M-501.107,206.52a5.757,5.757,0,0,1-5.774-5.723,5.736,5.736,0,0,1,5.738-5.747,5.711,5.711,0,0,1,5.786,5.735A5.734,5.734,0,0,1-501.107,206.52Zm.025-9.477a3.794,3.794,0,0,0-3.8,3.712,3.81,3.81,0,0,0,3.664,3.767,3.774,3.774,0,0,0,3.856-3.652A3.748,3.748,0,0,0-501.082,197.043Z" transform="translate(512.633 -185.037)"/><path class="b" d="M-204.341,239.11a1.914,1.914,0,0,1-1.95,1.854,1.9,1.9,0,0,1-1.844-1.955,1.869,1.869,0,0,1,1.991-1.839A1.887,1.887,0,0,1-204.341,239.11Z" transform="translate(241.1 -223.319)"/><path class="b" d="M-464.536,238.917a1.86,1.86,0,0,1,1.93-1.9,1.916,1.916,0,0,1,1.912,1.892,1.942,1.942,0,0,1-1.929,1.935A1.89,1.89,0,0,1-464.536,238.917Z" transform="translate(474.145 -223.183)"/></g></g></g></svg>