<svg xmlns="http://www.w3.org/2000/svg" width="219" height="60" viewBox="0 0 219 60"><defs><style>.a{fill:#e7a436;}.b{fill:#fff;}</style></defs><g transform="translate(0.335)"><g transform="translate(0 0)"><path class="a" d="M20,0H219a0,0,0,0,1,0,0V40a20,20,0,0,1-20,20H0a0,0,0,0,1,0,0V20A20,20,0,0,1,20,0Z" transform="translate(-0.335 0)"/></g><g transform="translate(18.848 11.444)"><path class="b" d="M-863.076,1896.742h-3.97v-27.57h3.582v3.029c.307-.347.478-.53.639-.722a7.777,7.777,0,0,1,12.95,1.364,12.7,12.7,0,0,1-.3,12.357,7.73,7.73,0,0,1-12.5,1.349,1.277,1.277,0,0,1-.165-.379l-.235.146Zm10.469-17.75c-.248-1.328-.362-2.45-.676-3.513a4.463,4.463,0,0,0-4.067-3.5,4.765,4.765,0,0,0-4.931,2.951,9.778,9.778,0,0,0,.068,8.114,4.417,4.417,0,0,0,4.353,2.784,4.312,4.312,0,0,0,4.251-2.911A30.862,30.862,0,0,0-852.606,1878.992Z" transform="translate(905.756 -1859.845)"/><path class="b" d="M-606.439,1827.016v-.857c0-3.335.021-6.671-.015-10.006-.008-.728.208-.978.929-.918a11.743,11.743,0,0,0,2.049,0c.758-.071.934.24.9.939-.054,1.063-.014,2.131-.014,3.2,0,7.9-.012,15.8.017,23.7,0,.8-.235,1.071-1.014.989a7.633,7.633,0,0,0-1.638,0c-.758.085-.95-.244-.9-.937.05-.719.011-1.445.011-2.168l-.234-.076c-.161.193-.325.385-.483.58a7.421,7.421,0,0,1-12.422-.9,12.59,12.59,0,0,1-.459-12.039,7.6,7.6,0,0,1,12.695-1.786,2.035,2.035,0,0,1,.236.437Zm-10.624,7.286a32.763,32.763,0,0,0,.916,3.868,4.294,4.294,0,0,0,3.74,3.024,4.522,4.522,0,0,0,4.821-2.405,9.461,9.461,0,0,0-.053-9.328,4.487,4.487,0,0,0-4.564-2.309,4.377,4.377,0,0,0-3.75,2.664A12.806,12.806,0,0,0-617.063,1834.3Z" transform="translate(700.164 -1815.224)"/><path class="b" d="M-190.028,1879.553a10.909,10.909,0,0,1-1.983,6.648,8.8,8.8,0,0,1-6.2,3.438,11.86,11.86,0,0,1-4.631-.266,8.7,8.7,0,0,1-6.529-7.323,13.378,13.378,0,0,1,.646-7.171,8.5,8.5,0,0,1,7-5.361,11.536,11.536,0,0,1,4.954.245c3.744,1.037,5.8,3.611,6.488,7.351C-190.13,1877.916-190.108,1878.74-190.028,1879.553Zm-3.89-.059a29.015,29.015,0,0,0-.895-3.705,4.942,4.942,0,0,0-4.408-3.41,5,5,0,0,0-5.309,2.918,9.164,9.164,0,0,0,.083,8.584,4.932,4.932,0,0,0,4.591,2.782,5.056,5.056,0,0,0,4.715-2.717A11.5,11.5,0,0,0-193.918,1879.494Z" transform="translate(356.322 -1860.463)"/><path class="b" d="M-734.873,1873.864c0-.995-.033-1.842.021-2.684a.916.916,0,0,1,.454-.661,13.64,13.64,0,0,1,8.964-.837,5.968,5.968,0,0,1,4.386,5.731c.157,4.4.126,8.8.188,13.2.007.487-.215.608-.649.6-.738-.019-1.479-.029-2.216,0-.528.022-.658-.221-.639-.693.026-.624.006-1.25.006-2.132-.358.352-.557.539-.747.735a8.048,8.048,0,0,1-8.487,1.869,5.246,5.246,0,0,1-3.555-4.434,5.5,5.5,0,0,1,2.33-5.591,11.53,11.53,0,0,1,5.969-1.786c1.145-.079,2.3-.053,3.447-.045.58,0,.809-.149.762-.812-.221-3.083-2.461-4.219-4.989-4.1a10.866,10.866,0,0,0-4.526,1.318C-734.341,1873.636-734.538,1873.713-734.873,1873.864Zm5.005,12.817a5.4,5.4,0,0,0,5.258-6.467c-.037-.2-.318-.486-.494-.491a13.881,13.881,0,0,0-6.114.758,3.212,3.212,0,0,0-2.078,3.739A3.267,3.267,0,0,0-729.868,1886.681Z" transform="translate(797.256 -1860.382)"/><path class="b" d="M-1098.662,1841.11c0-1.415.024-2.719-.011-4.023a.787.787,0,0,1,.665-.925c1.067-.311,2.11-.7,3.269-1.1,0,1.769.044,3.434-.019,5.1-.029.785.242.973.973.939,1.2-.055,2.4-.015,3.663-.015v3.132h-4.468c-.067.152-.126.224-.126.3,0,3.417-.069,6.837.046,10.251.1,2.832,1.326,3.619,4.037,2.838.206-.059.414-.108.691-.181v3.227a9.78,9.78,0,0,1-5.97-.066,3.97,3.97,0,0,1-2.465-2.971,12.509,12.509,0,0,1-.359-2.752c-.045-3.2-.022-6.4-.025-9.6,0-.3,0-.594,0-.975h-3.853v-3.175Z" transform="translate(1102.616 -1831.806)"/><path class="b" d="M-308.184,1886.7a35.376,35.376,0,0,0,3.8,1.029,9.4,9.4,0,0,0,2.919-.072,2.486,2.486,0,0,0,2.236-2.19,2.437,2.437,0,0,0-1.451-2.534c-1.09-.622-2.249-1.126-3.325-1.77a14.722,14.722,0,0,1-2.732-1.927,4.371,4.371,0,0,1,.547-6.84,9.608,9.608,0,0,1,3.693-1.406,13.9,13.9,0,0,1,5.846.4c.517.138.731.341.7.89-.046.777-.012,1.559-.012,2.355a34.443,34.443,0,0,0-3.716-.911,10.012,10.012,0,0,0-2.919.113,1.845,1.845,0,0,0-1.585,1.48,1.85,1.85,0,0,0,.907,2.041c1.044.641,2.158,1.164,3.221,1.774a21.861,21.861,0,0,1,3.06,1.883,5.01,5.01,0,0,1-.657,8.36,10.9,10.9,0,0,1-3.845,1.257,13.136,13.136,0,0,1-6.067-.573c-.58-.2-.88-.444-.8-1.091C-308.271,1888.209-308.24,1887.448-308.184,1886.7Z" transform="translate(438.889 -1861.697)"/><path class="b" d="M-472.934,1872.273l-9.857,19.321-9.6-19.309c1.464,0,2.766-.031,4.063.032.213.01.472.405.6.675,1.5,3.185,2.987,6.381,4.478,9.573.135.288.288.567.523,1.026.241-.419.408-.679.547-.953,1.616-3.194,3.241-6.383,4.827-9.591a1.156,1.156,0,0,1,1.247-.788C-475.1,1872.316-474.1,1872.273-472.934,1872.273Z" transform="translate(592.664 -1862.883)"/><path class="b" d="M-997.972,1889.444h-3.978v-19.511h3.592v2.594a30.93,30.93,0,0,1,3.066-2.48c1.209-.759,2.631-.562,4.019-.395v3.745a14.866,14.866,0,0,0-2.369-.111c-2.5.284-4.089,2.065-4.21,4.936-.141,3.329-.089,6.665-.119,10C-997.975,1888.6-997.972,1888.982-997.972,1889.444Z" transform="translate(1018.492 -1860.581)"/><path class="b" d="M-62.961,1873.489c.345-.453.666-.926,1.039-1.355a5.764,5.764,0,0,1,5.35-1.819c.178.02.471.278.472.426,0,1.052-.058,2.1-.1,3.106a16.9,16.9,0,0,0-2.591.021,4.584,4.584,0,0,0-3.822,4.069,11.7,11.7,0,0,0-.19,2.033q-.03,4.635,0,9.27c0,.591-.136.85-.774.807a15.88,15.88,0,0,0-2.214,0c-.687.05-.884-.2-.88-.878.026-4.649.013-9.3.013-13.946,0-1.285.019-2.571-.008-3.855-.012-.542.123-.812.728-.775.708.044,1.423.031,2.133,0,.508-.019.675.2.658.683-.026.729-.007,1.458-.007,2.188Z" transform="translate(236.901 -1861.214)"/><path class="b" d="M-915.658,1871.981h3.947V1891.5h-3.947Z" transform="translate(946.38 -1862.654)"/><path class="b" d="M-360.273,1882c0-2.978.014-5.956-.012-8.934-.005-.6.165-.837.787-.8a16.805,16.805,0,0,0,2.212,0c.682-.047.893.2.887.877-.029,3.251-.012,6.5-.012,9.753,0,2.65-.02,5.3.013,7.95.008.678-.2.927-.883.877a16.352,16.352,0,0,0-2.212,0c-.615.039-.8-.177-.791-.789C-360.258,1887.956-360.273,1884.979-360.273,1882Z" transform="translate(482.27 -1862.89)"/><path class="b" d="M-913.444,1824.6a2.375,2.375,0,0,1-2.453,2.331,2.387,2.387,0,0,1-2.333-2.376,2.389,2.389,0,0,1,2.42-2.373A2.375,2.375,0,0,1-913.444,1824.6Z" transform="translate(948.53 -1821.042)"/><path class="b" d="M-362.253,1825.018a2.322,2.322,0,0,1,2.259-2.33,2.365,2.365,0,0,1,2.347,2.257,2.388,2.388,0,0,1-2.275,2.337A2.344,2.344,0,0,1-362.253,1825.018Z" transform="translate(483.914 -1821.461)"/></g></g></svg>