<svg xmlns="http://www.w3.org/2000/svg" width="200" height="74" viewBox="0 0 200 74"><defs><style>.a{fill:#fff;font-size:32px;font-family:HelveticaNeue, Helvetica Neue;}.b,.d{fill:none;}.b{stroke:#fff;stroke-linecap:round;stroke-linejoin:round;stroke-width:2px;}.c{stroke:none;}</style></defs><g transform="translate(-1665 -34)"><text class="a" transform="translate(1708 83)"><tspan x="0" y="0">Ver más</tspan></text><g class="b" transform="translate(1665 34)"><path class="c" d="M20,0H200a0,0,0,0,1,0,0V54a20,20,0,0,1-20,20H0a0,0,0,0,1,0,0V20A20,20,0,0,1,20,0Z"/><path class="d" d="M20,1H198a1,1,0,0,1,1,1V54a19,19,0,0,1-19,19H2a1,1,0,0,1-1-1V20A19,19,0,0,1,20,1Z"/></g></g></svg>