<svg xmlns="http://www.w3.org/2000/svg" width="15.156" height="14.548" viewBox="0 0 15.156 14.548"><defs><style>.a{fill:#727272;}</style></defs><g transform="translate(0 0)"><path class="a" d="M15.126,18.236A5.975,5.975,0,0,0,10.48,13v-.752a1.006,1.006,0,0,0-.243-1.983H8.106a1.006,1.006,0,0,0-.243,1.983V13a5.944,5.944,0,0,0-2.915,1.6,6.008,6.008,0,0,0-.5.57H2.314a.3.3,0,0,0,0,.592H4.043A5.934,5.934,0,0,0,3.518,16.9H.3a.3.3,0,1,0,0,.592H3.35A6.019,6.019,0,0,0,3.2,18.632H1.894a.3.3,0,1,0,0,.592H3.213A6.01,6.01,0,0,0,3.4,20.361H1.48a.3.3,0,1,0,0,.592H3.587a5.979,5.979,0,0,0,5,3.828q.293.029.587.029a5.994,5.994,0,0,0,3.263-.964.3.3,0,1,0-.323-.5A5.387,5.387,0,1,1,13.7,21.761a.3.3,0,1,0,.5.322A6,6,0,0,0,15.126,18.236ZM7.692,11.268a.415.415,0,0,1,.414-.414h2.131a.414.414,0,1,1,0,.829H8.106A.415.415,0,0,1,7.692,11.268ZM8.455,12.9v-.623H9.888V12.9A6.031,6.031,0,0,0,8.455,12.9Z" transform="translate(0 -10.262)"/><path class="a" d="M436.066,425.5a.3.3,0,1,0,.209.087A.3.3,0,0,0,436.066,425.5Z" transform="translate(-422.871 -413.208)"/><path class="a" d="M159.464,144.609a4.592,4.592,0,1,0,4.592,4.592A4.6,4.6,0,0,0,159.464,144.609Zm0,8.592a4,4,0,1,1,4-4A4,4,0,0,1,159.464,153.2Z" transform="translate(-150.288 -140.632)"/><path class="a" d="M260.477,219.5l-1.466,1.466a.917.917,0,0,0-.813,0l-.656-.656a.3.3,0,1,0-.419.419l.656.656a.92.92,0,1,0,1.65,0l1.423-1.423h0l.043-.043a.3.3,0,1,0-.419-.419Zm-1.872,2.619a.328.328,0,1,1,.328-.328A.328.328,0,0,1,258.6,222.117Z" transform="translate(-249.428 -213.22)"/><path class="a" d="M398.225,289.86h-.274a.3.3,0,0,0,0,.592h.274a.3.3,0,0,0,0-.592Z" transform="translate(-385.884 -281.584)"/><path class="a" d="M193.652,289.616h-.274a.3.3,0,1,0,0,.592h.274a.3.3,0,1,0,0-.592Z" transform="translate(-187.367 -281.347)"/><path class="a" d="M300.419,183.685a.3.3,0,0,0,.3-.3v-.274a.3.3,0,1,0-.592,0v.274A.3.3,0,0,0,300.419,183.685Z" transform="translate(-291.239 -177.711)"/><path class="a" d="M300.175,387.393a.3.3,0,0,0-.3.3v.274a.3.3,0,1,0,.592,0v-.274A.3.3,0,0,0,300.175,387.393Z" transform="translate(-291.002 -376.229)"/><path class="a" d="M.3,351.44a.3.3,0,1,0,.209.505A.3.3,0,0,0,.3,351.44Z" transform="translate(0 -341.341)"/></g></svg>